<?xml version="1.0" encoding="utf-8"?>
<!-- Generator: Adobe Illustrator 25.2.1, SVG Export Plug-In . SVG Version: 6.00 Build 0)  -->
<svg version="1.1" id="Capa_1" xmlns="http://www.w3.org/2000/svg" xmlns:xlink="http://www.w3.org/1999/xlink" x="0px" y="0px"
	 viewBox="0 0 288 560" style="enable-background:new 0 0 288 560;" xml:space="preserve">
<style type="text/css">
	.st0{fill:#E84E1B;}
	.st1{fill:url(#SVGID_1_);}
	.st2{fill:none;}
	.st3{fill:none;stroke:#FFFFFF;stroke-miterlimit:10;}
	.st4{font-family:'Arial-BoldMT';}
	.st5{font-size:144.9311px;}
	.st6{fill:url(#SVGID_2_);}
	.st7{fill:#8DBE22;}
	.st8{fill:#009EE2;stroke:#009EE2;stroke-width:0.25;stroke-miterlimit:10;}
	.st9{fill:none;stroke:#009EE2;stroke-width:0.25;stroke-miterlimit:10;}
</style>
<path class="st0" d="M141.32,319.45c1.23-0.02,2.45-0.03,3.68-0.05"/>
<path class="st0" d="M120.63,256.51"/>
<path class="st0" d="M164.68,314.84c1.23-0.02,2.45-0.03,3.68-0.05"/>
<g>
	<g>
		<linearGradient id="SVGID_1_" gradientUnits="userSpaceOnUse" x1="214.0847" y1="208.8367" x2="147.1529" y2="275.3082">
			<stop  offset="0.0642" style="stop-color:#FCEA0D"/>
			<stop  offset="0.1048" style="stop-color:#ECE206"/>
			<stop  offset="0.1527" style="stop-color:#E1DD02"/>
			<stop  offset="0.2039" style="stop-color:#DDDB00"/>
			<stop  offset="0.3728" style="stop-color:#93C01F"/>
			<stop  offset="0.5503" style="stop-color:#2DAB66"/>
			<stop  offset="0.7689" style="stop-color:#00A099"/>
			<stop  offset="0.8687" style="stop-color:#009FD9"/>
		</linearGradient>
		<path class="st1" d="M143.96,263.62l21.88-2.34c0.7,4.91,2.57,8.66,5.63,11.25c3.06,2.6,6.76,3.89,11.1,3.89
			c4.67,0,8.59-1.56,11.78-4.67c3.19-3.11,4.79-7.31,4.79-12.6c0-5-1.53-8.96-4.58-11.89c-3.06-2.92-6.78-4.39-11.18-4.39
			c-2.89,0-6.35,0.5-10.38,1.49l2.49-16.21c6.11,0.14,10.78-1.03,13.99-3.5c3.22-2.48,4.83-5.77,4.83-9.87
			c0-3.49-1.18-6.27-3.54-8.35c-2.36-2.08-5.5-3.11-9.41-3.11c-3.86,0-7.16,1.18-9.89,3.54c-2.73,2.36-4.4,5.8-4.99,10.33
			l-20.83-3.11c1.45-6.27,3.63-11.29,6.55-15.04c2.92-3.75,7-6.7,12.22-8.85c5.23-2.15,11.09-3.22,17.57-3.22
			c11.1,0,20,3.11,26.7,9.34c5.52,5.1,8.28,10.85,8.28,17.27c0,9.11-5.66,16.37-16.97,21.8c6.76,1.27,12.16,4.13,16.21,8.56
			c4.05,4.44,6.07,9.79,6.07,16.06c0,9.11-3.78,16.87-11.34,23.28c-7.56,6.42-16.97,9.62-28.23,9.62c-10.67,0-19.52-2.7-26.54-8.1
			C149.16,279.42,145.08,272.35,143.96,263.62z"/>
	</g>
	<rect x="124.22" y="187.38" class="st2" width="118.38" height="111.5"/>
	<text transform="matrix(1.1365 0 0 1 137.0402 291.1518)" class="st3 st4 st5">3</text>
</g>
<linearGradient id="SVGID_2_" gradientUnits="userSpaceOnUse" x1="221.3059" y1="205.8509" x2="46.4142" y2="328.4159">
	<stop  offset="0.3607" style="stop-color:#8DBE22"/>
	<stop  offset="0.3856" style="stop-color:#76B827"/>
	<stop  offset="0.4211" style="stop-color:#5BB22D"/>
	<stop  offset="0.4573" style="stop-color:#48AD32"/>
	<stop  offset="0.4945" style="stop-color:#3DAA34"/>
	<stop  offset="0.5342" style="stop-color:#39A935"/>
	<stop  offset="0.6583" style="stop-color:#2DAB66"/>
	<stop  offset="0.8229" style="stop-color:#009540"/>
	<stop  offset="0.9573" style="stop-color:#006633"/>
</linearGradient>
<path class="st6" d="M242.39,275.85c-0.88-0.67-4.46,5.1-12.72,10.02c-7.94,4.74-15.29,5.76-19.01,6.24
	c-23.93,3.1-29.9-12.08-51.61-8.33c-10.34,1.79-21.49,7.41-25.67,9.52c-3.08,1.55-7.09,3.74-11.65,7.01
	c-1.95,1.4-7.55,5.53-13.08,12.49c-4.53,5.69-4.34,7.41-4.14,8.15c0.33,1.28,1.49,3.18,10.12,5.34c9.75,2.44,13.41,2.71,13.41,2.71
	c16,1.17,23.99,1.75,33.58,0c17.59-3.22,29.38-11.49,30.05-10.11c0.39,0.8-3.47,3.83-6.06,5.59c-4.24,2.88-10.5,6.08-28.52,9.04
	c-6.14,1.01-9.21,1.51-13.41,1.81c-19.98,1.4-33.41-3.65-33.81-2.22c-0.36,1.3,10.26,7.2,23.76,10.6
	c24.82,6.25,44.73,0.33,48.91-0.99c12.23-3.85,20.48-9.5,20.62-9.2c0.16,0.35-10.77,8.89-25.76,13.64
	c-27.63,8.75-51.74-0.9-58.26-3.62c-5.83-2.43-17.23-7.91-28.67-18.9c-6.91-6.64-15.69-15.06-20.54-29.25
	c-3.92-11.44-4-21.58-3.99-27.77c0.01-3.26,0.19-11.72,2.64-22.3c1.33-5.77,3.99-16.84,11.62-28.96c2.16-3.43,8.39-12.75,19.16-21.2
	c2.65-2.08,9.28-7,18.86-11.01c1.94-0.81,3.77-1.49,5.54-2.07c1.36-0.45,7.2-2.37,15.01-3.52c10.81-1.59,20.03-0.94,23.61-0.61
	c9,0.82,19.93,1.82,32.2,8.34c5.42,2.88,13.86,8.31,22.08,18.24c-0.81-2.92-2.31-7.26-5.21-11.83c-1.63-2.56-5.96-8.74-15.64-14.46
	c-19.94-11.77-46.63-12.13-49.06-12.15c-12-0.05-31.84-0.08-52.59,12.31c-12.29,7.34-20.08,16.13-24.07,20.7
	c-4.14,4.74-11.38,13.17-16.86,25.47c-14.08,31.58-5,62.77-3.99,66.06c5.89,19.17,16.47,30.9,21.62,36.48
	c5.29,5.73,28.66,29.7,65.31,31.71c46.41,2.55,76.33-32.18,82.02-38.78C234.85,300.68,244.06,277.12,242.39,275.85z"/>
<path class="st0" d="M143.99,251.9"/>
<path class="st0" d="M99.43,279.4"/>
<path class="st2" d="M95.14,282.9"/>
<path class="st7" d="M106.15,310.26c1.94-0.95,3.21-2.39,3.73-3c2.17-2.5,2.89-5.18,3.24-6.5c1.05-3.91,1.6-11.44-2.1-18.93
	c-4.35-8.8-9.18-6.65-14.67-15.34c-5.98-9.47-4.16-18.24-7.65-18.88c-3.29-0.61-7.06,6.79-9.27,11.11
	c-4.16,8.15-4.76,15.33-4.89,17.17c-0.25,3.67-0.55,8.9,1.66,15.01c2.68,7.4,7.42,11.56,9.51,13.35c4.27,3.66,8.18,5.09,9.46,5.52
	C98.3,310.83,102.26,312.17,106.15,310.26z"/>
<path class="st8" d="M89.18,274.37c-0.29,13.57,2.68,31.98,17.63,35.08"/>
<path class="st7" d="M106.81,309.45c-16.21-12.58-18.34-30.08-17.35-35.31"/>
<path class="st9" d="M105.55,296.18"/>
</svg>
